<?xml version="1.0" encoding="utf-8" standalone="no"?>
<!DOCTYPE svg PUBLIC "-//W3C//DTD SVG 1.1//EN"
  "http://www.w3.org/Graphics/SVG/1.1/DTD/svg11.dtd">
<!-- Created with matplotlib (https://matplotlib.org/) -->
<svg height="432pt" version="1.1" viewBox="0 0 720 432" width="720pt" xmlns="http://www.w3.org/2000/svg" xmlns:xlink="http://www.w3.org/1999/xlink">
 <defs>
  <style type="text/css">
*{stroke-linecap:butt;stroke-linejoin:round;}
  </style>
 </defs>
 <g id="figure_1">
  <g id="patch_1">
   <path d="M 0 432 
L 720 432 
L 720 0 
L 0 0 
z
" style="fill:#ffffff;"/>
  </g>
  <g id="axes_1">
   <g id="patch_2">
    <path d="M 90 378 
L 648 378 
L 648 51.84 
L 90 51.84 
z
" style="fill:#ffffff;"/>
   </g>
   <g id="PathCollection_1">
    <defs>
     <path d="M 0 2.236068 
C 0.593012 2.236068 1.161816 2.000462 1.581139 1.581139 
C 2.000462 1.161816 2.236068 0.593012 2.236068 0 
C 2.236068 -0.593012 2.000462 -1.161816 1.581139 -1.581139 
C 1.161816 -2.000462 0.593012 -2.236068 0 -2.236068 
C -0.593012 -2.236068 -1.161816 -2.000462 -1.581139 -1.581139 
C -2.000462 -1.161816 -2.236068 -0.593012 -2.236068 0 
C -2.236068 0.593012 -2.000462 1.161816 -1.581139 1.581139 
C -1.161816 2.000462 -0.593012 2.236068 0 2.236068 
z
" id="mfb452eecd9" style="stroke:#1f77b4;"/>
    </defs>
    <g clip-path="url(#p610ead3030)">
     <use style="fill:#1f77b4;stroke:#1f77b4;" x="117.584724" xlink:href="#mfb452eecd9" y="172.594196"/>
     <use style="fill:#1f77b4;stroke:#1f77b4;" x="117.774189" xlink:href="#mfb452eecd9" y="172.59423"/>
     <use style="fill:#1f77b4;stroke:#1f77b4;" x="118.497706" xlink:href="#mfb452eecd9" y="172.594987"/>
     <use style="fill:#1f77b4;stroke:#1f77b4;" x="119.703564" xlink:href="#mfb452eecd9" y="172.598451"/>
     <use style="fill:#1f77b4;stroke:#1f77b4;" x="121.391746" xlink:href="#mfb452eecd9" y="172.607911"/>
     <use style="fill:#1f77b4;stroke:#1f77b4;" x="123.562206" xlink:href="#mfb452eecd9" y="172.627935"/>
     <use style="fill:#1f77b4;stroke:#1f77b4;" x="126.214853" xlink:href="#mfb452eecd9" y="172.664341"/>
     <use style="fill:#1f77b4;stroke:#1f77b4;" x="129.349523" xlink:href="#mfb452eecd9" y="172.724144"/>
     <use style="fill:#1f77b4;stroke:#1f77b4;" x="132.965953" xlink:href="#mfb452eecd9" y="172.815506"/>
     <use style="fill:#1f77b4;stroke:#1f77b4;" x="137.063748" xlink:href="#mfb452eecd9" y="172.947657"/>
     <use style="fill:#1f77b4;stroke:#1f77b4;" x="141.642355" xlink:href="#mfb452eecd9" y="173.130812"/>
     <use style="fill:#1f77b4;stroke:#1f77b4;" x="146.701023" xlink:href="#mfb452eecd9" y="173.376066"/>
     <use style="fill:#1f77b4;stroke:#1f77b4;" x="152.238781" xlink:href="#mfb452eecd9" y="173.695281"/>
     <use style="fill:#1f77b4;stroke:#1f77b4;" x="158.25441" xlink:href="#mfb452eecd9" y="174.10094"/>
     <use style="fill:#1f77b4;stroke:#1f77b4;" x="164.746425" xlink:href="#mfb452eecd9" y="174.606003"/>
     <use style="fill:#1f77b4;stroke:#1f77b4;" x="171.713065" xlink:href="#mfb452eecd9" y="175.223727"/>
     <use style="fill:#1f77b4;stroke:#1f77b4;" x="179.15229" xlink:href="#mfb452eecd9" y="175.96748"/>
     <use style="fill:#1f77b4;stroke:#1f77b4;" x="187.061802" xlink:href="#mfb452eecd9" y="176.850537"/>
     <use style="fill:#1f77b4;stroke:#1f77b4;" x="195.439062" xlink:href="#mfb452eecd9" y="177.885859"/>
     <use style="fill:#1f77b4;stroke:#1f77b4;" x="204.281342" xlink:href="#mfb452eecd9" y="179.085857"/>
     <use style="fill:#1f77b4;stroke:#1f77b4;" x="213.585781" xlink:href="#mfb452eecd9" y="180.462154"/>
     <use style="fill:#1f77b4;stroke:#1f77b4;" x="223.349462" xlink:href="#mfb452eecd9" y="182.025329"/>
     <use style="fill:#1f77b4;stroke:#1f77b4;" x="233.569504" xlink:href="#mfb452eecd9" y="183.784661"/>
     <use style="fill:#1f77b4;stroke:#1f77b4;" x="244.243173" xlink:href="#mfb452eecd9" y="185.747867"/>
     <use style="fill:#1f77b4;stroke:#1f77b4;" x="255.368001" xlink:href="#mfb452eecd9" y="187.920841"/>
     <use style="fill:#1f77b4;stroke:#1f77b4;" x="266.94192" xlink:href="#mfb452eecd9" y="190.307382"/>
     <use style="fill:#1f77b4;stroke:#1f77b4;" x="278.963403" xlink:href="#mfb452eecd9" y="192.908931"/>
     <use style="fill:#1f77b4;stroke:#1f77b4;" x="291.431609" xlink:href="#mfb452eecd9" y="195.724294"/>
     <use style="fill:#1f77b4;stroke:#1f77b4;" x="304.111903" xlink:href="#mfb452eecd9" y="198.69353"/>
     <use style="fill:#1f77b4;stroke:#1f77b4;" x="316.772019" xlink:href="#mfb452eecd9" y="201.747694"/>
     <use style="fill:#1f77b4;stroke:#1f77b4;" x="329.415496" xlink:href="#mfb452eecd9" y="204.870055"/>
     <use style="fill:#1f77b4;stroke:#1f77b4;" x="342.046128" xlink:href="#mfb452eecd9" y="208.044003"/>
     <use style="fill:#1f77b4;stroke:#1f77b4;" x="354.667898" xlink:href="#mfb452eecd9" y="211.253025"/>
     <use style="fill:#1f77b4;stroke:#1f77b4;" x="367.284919" xlink:href="#mfb452eecd9" y="214.48068"/>
     <use style="fill:#1f77b4;stroke:#1f77b4;" x="379.90137" xlink:href="#mfb452eecd9" y="217.710564"/>
     <use style="fill:#1f77b4;stroke:#1f77b4;" x="392.521438" xlink:href="#mfb452eecd9" y="220.926278"/>
     <use style="fill:#1f77b4;stroke:#1f77b4;" x="405.149259" xlink:href="#mfb452eecd9" y="224.111393"/>
     <use style="fill:#1f77b4;stroke:#1f77b4;" x="417.78886" xlink:href="#mfb452eecd9" y="227.24942"/>
     <use style="fill:#1f77b4;stroke:#1f77b4;" x="430.44409" xlink:href="#mfb452eecd9" y="230.323777"/>
     <use style="fill:#1f77b4;stroke:#1f77b4;" x="443.118564" xlink:href="#mfb452eecd9" y="233.317767"/>
     <use style="fill:#1f77b4;stroke:#1f77b4;" x="455.643296" xlink:href="#mfb452eecd9" y="236.176013"/>
     <use style="fill:#1f77b4;stroke:#1f77b4;" x="467.784322" xlink:href="#mfb452eecd9" y="238.835966"/>
     <use style="fill:#1f77b4;stroke:#1f77b4;" x="479.478075" xlink:href="#mfb452eecd9" y="241.281038"/>
     <use style="fill:#1f77b4;stroke:#1f77b4;" x="490.723202" xlink:href="#mfb452eecd9" y="243.51198"/>
     <use style="fill:#1f77b4;stroke:#1f77b4;" x="501.51777" xlink:href="#mfb452eecd9" y="245.531973"/>
     <use style="fill:#1f77b4;stroke:#1f77b4;" x="511.85941" xlink:href="#mfb452eecd9" y="247.346363"/>
     <use style="fill:#1f77b4;stroke:#1f77b4;" x="521.745449" xlink:href="#mfb452eecd9" y="248.962393"/>
     <use style="fill:#1f77b4;stroke:#1f77b4;" x="531.173038" xlink:href="#mfb452eecd9" y="250.388938"/>
     <use style="fill:#1f77b4;stroke:#1f77b4;" x="540.139261" xlink:href="#mfb452eecd9" y="251.636242"/>
     <use style="fill:#1f77b4;stroke:#1f77b4;" x="548.641235" xlink:href="#mfb452eecd9" y="252.715664"/>
     <use style="fill:#1f77b4;stroke:#1f77b4;" x="556.67619" xlink:href="#mfb452eecd9" y="253.639418"/>
     <use style="fill:#1f77b4;stroke:#1f77b4;" x="564.241534" xlink:href="#mfb452eecd9" y="254.420331"/>
     <use style="fill:#1f77b4;stroke:#1f77b4;" x="571.334899" xlink:href="#mfb452eecd9" y="255.071606"/>
     <use style="fill:#1f77b4;stroke:#1f77b4;" x="577.954174" xlink:href="#mfb452eecd9" y="255.606599"/>
     <use style="fill:#1f77b4;stroke:#1f77b4;" x="584.097522" xlink:href="#mfb452eecd9" y="256.038611"/>
     <use style="fill:#1f77b4;stroke:#1f77b4;" x="589.763384" xlink:href="#mfb452eecd9" y="256.380689"/>
     <use style="fill:#1f77b4;stroke:#1f77b4;" x="594.95047" xlink:href="#mfb452eecd9" y="256.645456"/>
     <use style="fill:#1f77b4;stroke:#1f77b4;" x="599.657741" xlink:href="#mfb452eecd9" y="256.844947"/>
     <use style="fill:#1f77b4;stroke:#1f77b4;" x="603.884391" xlink:href="#mfb452eecd9" y="256.990472"/>
     <use style="fill:#1f77b4;stroke:#1f77b4;" x="607.629815" xlink:href="#mfb452eecd9" y="257.092487"/>
     <use style="fill:#1f77b4;stroke:#1f77b4;" x="610.893576" xlink:href="#mfb452eecd9" y="257.160493"/>
     <use style="fill:#1f77b4;stroke:#1f77b4;" x="613.675378" xlink:href="#mfb452eecd9" y="257.202941"/>
     <use style="fill:#1f77b4;stroke:#1f77b4;" x="615.975032" xlink:href="#mfb452eecd9" y="257.227159"/>
     <use style="fill:#1f77b4;stroke:#1f77b4;" x="617.792429" xlink:href="#mfb452eecd9" y="257.239287"/>
     <use style="fill:#1f77b4;stroke:#1f77b4;" x="619.127513" xlink:href="#mfb452eecd9" y="257.244231"/>
     <use style="fill:#1f77b4;stroke:#1f77b4;" x="619.980259" xlink:href="#mfb452eecd9" y="257.245624"/>
     <use style="fill:#1f77b4;stroke:#1f77b4;" x="620.350661" xlink:href="#mfb452eecd9" y="257.2458"/>
     <use style="fill:#1f77b4;stroke:#1f77b4;" x="620.415276" xlink:href="#mfb452eecd9" y="257.245804"/>
     <use style="fill:#1f77b4;stroke:#1f77b4;" x="620.415276" xlink:href="#mfb452eecd9" y="257.245804"/>
    </g>
   </g>
   <g id="PathCollection_2">
    <defs>
     <path d="M 0 2.236068 
C 0.593012 2.236068 1.161816 2.000462 1.581139 1.581139 
C 2.000462 1.161816 2.236068 0.593012 2.236068 0 
C 2.236068 -0.593012 2.000462 -1.161816 1.581139 -1.581139 
C 1.161816 -2.000462 0.593012 -2.236068 0 -2.236068 
C -0.593012 -2.236068 -1.161816 -2.000462 -1.581139 -1.581139 
C -2.000462 -1.161816 -2.236068 -0.593012 -2.236068 0 
C -2.236068 0.593012 -2.000462 1.161816 -1.581139 1.581139 
C -1.161816 2.000462 -0.593012 2.236068 0 2.236068 
z
" id="md83154879b" style="stroke:#ff0000;"/>
    </defs>
    <g clip-path="url(#p610ead3030)">
     <use style="fill:#ff0000;stroke:#ff0000;" x="117.584724" xlink:href="#md83154879b" y="172.594196"/>
     <use style="fill:#ff0000;stroke:#ff0000;" x="620.415276" xlink:href="#md83154879b" y="257.245804"/>
    </g>
   </g>
   <g id="matplotlib.axis_1">
    <g id="xtick_1">
     <g id="line2d_1">
      <path clip-path="url(#p610ead3030)" d="M 117.584724 378 
L 117.584724 51.84 
" style="fill:none;stroke:#d3d3d3;stroke-dasharray:2.22,0.96;stroke-dashoffset:0;stroke-width:0.6;"/>
     </g>
     <g id="line2d_2">
      <defs>
       <path d="M 0 0 
L 0 3.5 
" id="m7dff66daa6" style="stroke:#000000;stroke-width:0.8;"/>
      </defs>
      <g>
       <use style="stroke:#000000;stroke-width:0.8;" x="117.584724" xlink:href="#m7dff66daa6" y="378"/>
      </g>
     </g>
     <g id="text_1">
      <!-- 0.0 -->
      <defs>
       <path d="M 31.78125 66.40625 
Q 24.171875 66.40625 20.328125 58.90625 
Q 16.5 51.421875 16.5 36.375 
Q 16.5 21.390625 20.328125 13.890625 
Q 24.171875 6.390625 31.78125 6.390625 
Q 39.453125 6.390625 43.28125 13.890625 
Q 47.125 21.390625 47.125 36.375 
Q 47.125 51.421875 43.28125 58.90625 
Q 39.453125 66.40625 31.78125 66.40625 
z
M 31.78125 74.21875 
Q 44.046875 74.21875 50.515625 64.515625 
Q 56.984375 54.828125 56.984375 36.375 
Q 56.984375 17.96875 50.515625 8.265625 
Q 44.046875 -1.421875 31.78125 -1.421875 
Q 19.53125 -1.421875 13.0625 8.265625 
Q 6.59375 17.96875 6.59375 36.375 
Q 6.59375 54.828125 13.0625 64.515625 
Q 19.53125 74.21875 31.78125 74.21875 
z
" id="DejaVuSans-48"/>
       <path d="M 10.6875 12.40625 
L 21 12.40625 
L 21 0 
L 10.6875 0 
z
" id="DejaVuSans-46"/>
      </defs>
      <g transform="translate(109.633162 392.598437)scale(0.1 -0.1)">
       <use xlink:href="#DejaVuSans-48"/>
       <use x="63.623047" xlink:href="#DejaVuSans-46"/>
       <use x="95.410156" xlink:href="#DejaVuSans-48"/>
      </g>
     </g>
    </g>
    <g id="xtick_2">
     <g id="line2d_3">
      <path clip-path="url(#p610ead3030)" d="M 182.701346 378 
L 182.701346 51.84 
" style="fill:none;stroke:#d3d3d3;stroke-dasharray:2.22,0.96;stroke-dashoffset:0;stroke-width:0.6;"/>
     </g>
     <g id="line2d_4">
      <g>
       <use style="stroke:#000000;stroke-width:0.8;" x="182.701346" xlink:href="#m7dff66daa6" y="378"/>
      </g>
     </g>
     <g id="text_2">
      <!-- 0.5 -->
      <defs>
       <path d="M 10.796875 72.90625 
L 49.515625 72.90625 
L 49.515625 64.59375 
L 19.828125 64.59375 
L 19.828125 46.734375 
Q 21.96875 47.46875 24.109375 47.828125 
Q 26.265625 48.1875 28.421875 48.1875 
Q 40.625 48.1875 47.75 41.5 
Q 54.890625 34.8125 54.890625 23.390625 
Q 54.890625 11.625 47.5625 5.09375 
Q 40.234375 -1.421875 26.90625 -1.421875 
Q 22.3125 -1.421875 17.546875 -0.640625 
Q 12.796875 0.140625 7.71875 1.703125 
L 7.71875 11.625 
Q 12.109375 9.234375 16.796875 8.0625 
Q 21.484375 6.890625 26.703125 6.890625 
Q 35.15625 6.890625 40.078125 11.328125 
Q 45.015625 15.765625 45.015625 23.390625 
Q 45.015625 31 40.078125 35.4375 
Q 35.15625 39.890625 26.703125 39.890625 
Q 22.75 39.890625 18.8125 39.015625 
Q 14.890625 38.140625 10.796875 36.28125 
z
" id="DejaVuSans-53"/>
      </defs>
      <g transform="translate(174.749783 392.598437)scale(0.1 -0.1)">
       <use xlink:href="#DejaVuSans-48"/>
       <use x="63.623047" xlink:href="#DejaVuSans-46"/>
       <use x="95.410156" xlink:href="#DejaVuSans-53"/>
      </g>
     </g>
    </g>
    <g id="xtick_3">
     <g id="line2d_5">
      <path clip-path="url(#p610ead3030)" d="M 247.817967 378 
L 247.817967 51.84 
" style="fill:none;stroke:#d3d3d3;stroke-dasharray:2.22,0.96;stroke-dashoffset:0;stroke-width:0.6;"/>
     </g>
     <g id="line2d_6">
      <g>
       <use style="stroke:#000000;stroke-width:0.8;" x="247.817967" xlink:href="#m7dff66daa6" y="378"/>
      </g>
     </g>
     <g id="text_3">
      <!-- 1.0 -->
      <defs>
       <path d="M 12.40625 8.296875 
L 28.515625 8.296875 
L 28.515625 63.921875 
L 10.984375 60.40625 
L 10.984375 69.390625 
L 28.421875 72.90625 
L 38.28125 72.90625 
L 38.28125 8.296875 
L 54.390625 8.296875 
L 54.390625 0 
L 12.40625 0 
z
" id="DejaVuSans-49"/>
      </defs>
      <g transform="translate(239.866405 392.598437)scale(0.1 -0.1)">
       <use xlink:href="#DejaVuSans-49"/>
       <use x="63.623047" xlink:href="#DejaVuSans-46"/>
       <use x="95.410156" xlink:href="#DejaVuSans-48"/>
      </g>
     </g>
    </g>
    <g id="xtick_4">
     <g id="line2d_7">
      <path clip-path="url(#p610ead3030)" d="M 312.934589 378 
L 312.934589 51.84 
" style="fill:none;stroke:#d3d3d3;stroke-dasharray:2.22,0.96;stroke-dashoffset:0;stroke-width:0.6;"/>
     </g>
     <g id="line2d_8">
      <g>
       <use style="stroke:#000000;stroke-width:0.8;" x="312.934589" xlink:href="#m7dff66daa6" y="378"/>
      </g>
     </g>
     <g id="text_4">
      <!-- 1.5 -->
      <g transform="translate(304.983026 392.598437)scale(0.1 -0.1)">
       <use xlink:href="#DejaVuSans-49"/>
       <use x="63.623047" xlink:href="#DejaVuSans-46"/>
       <use x="95.410156" xlink:href="#DejaVuSans-53"/>
      </g>
     </g>
    </g>
    <g id="xtick_5">
     <g id="line2d_9">
      <path clip-path="url(#p610ead3030)" d="M 378.05121 378 
L 378.05121 51.84 
" style="fill:none;stroke:#d3d3d3;stroke-dasharray:2.22,0.96;stroke-dashoffset:0;stroke-width:0.6;"/>
     </g>
     <g id="line2d_10">
      <g>
       <use style="stroke:#000000;stroke-width:0.8;" x="378.05121" xlink:href="#m7dff66daa6" y="378"/>
      </g>
     </g>
     <g id="text_5">
      <!-- 2.0 -->
      <defs>
       <path d="M 19.1875 8.296875 
L 53.609375 8.296875 
L 53.609375 0 
L 7.328125 0 
L 7.328125 8.296875 
Q 12.9375 14.109375 22.625 23.890625 
Q 32.328125 33.6875 34.8125 36.53125 
Q 39.546875 41.84375 41.421875 45.53125 
Q 43.3125 49.21875 43.3125 52.78125 
Q 43.3125 58.59375 39.234375 62.25 
Q 35.15625 65.921875 28.609375 65.921875 
Q 23.96875 65.921875 18.8125 64.3125 
Q 13.671875 62.703125 7.8125 59.421875 
L 7.8125 69.390625 
Q 13.765625 71.78125 18.9375 73 
Q 24.125 74.21875 28.421875 74.21875 
Q 39.75 74.21875 46.484375 68.546875 
Q 53.21875 62.890625 53.21875 53.421875 
Q 53.21875 48.921875 51.53125 44.890625 
Q 49.859375 40.875 45.40625 35.40625 
Q 44.1875 33.984375 37.640625 27.21875 
Q 31.109375 20.453125 19.1875 8.296875 
z
" id="DejaVuSans-50"/>
      </defs>
      <g transform="translate(370.099648 392.598437)scale(0.1 -0.1)">
       <use xlink:href="#DejaVuSans-50"/>
       <use x="63.623047" xlink:href="#DejaVuSans-46"/>
       <use x="95.410156" xlink:href="#DejaVuSans-48"/>
      </g>
     </g>
    </g>
    <g id="xtick_6">
     <g id="line2d_11">
      <path clip-path="url(#p610ead3030)" d="M 443.167832 378 
L 443.167832 51.84 
" style="fill:none;stroke:#d3d3d3;stroke-dasharray:2.22,0.96;stroke-dashoffset:0;stroke-width:0.6;"/>
     </g>
     <g id="line2d_12">
      <g>
       <use style="stroke:#000000;stroke-width:0.8;" x="443.167832" xlink:href="#m7dff66daa6" y="378"/>
      </g>
     </g>
     <g id="text_6">
      <!-- 2.5 -->
      <g transform="translate(435.216269 392.598437)scale(0.1 -0.1)">
       <use xlink:href="#DejaVuSans-50"/>
       <use x="63.623047" xlink:href="#DejaVuSans-46"/>
       <use x="95.410156" xlink:href="#DejaVuSans-53"/>
      </g>
     </g>
    </g>
    <g id="xtick_7">
     <g id="line2d_13">
      <path clip-path="url(#p610ead3030)" d="M 508.284454 378 
L 508.284454 51.84 
" style="fill:none;stroke:#d3d3d3;stroke-dasharray:2.22,0.96;stroke-dashoffset:0;stroke-width:0.6;"/>
     </g>
     <g id="line2d_14">
      <g>
       <use style="stroke:#000000;stroke-width:0.8;" x="508.284454" xlink:href="#m7dff66daa6" y="378"/>
      </g>
     </g>
     <g id="text_7">
      <!-- 3.0 -->
      <defs>
       <path d="M 40.578125 39.3125 
Q 47.65625 37.796875 51.625 33 
Q 55.609375 28.21875 55.609375 21.1875 
Q 55.609375 10.40625 48.1875 4.484375 
Q 40.765625 -1.421875 27.09375 -1.421875 
Q 22.515625 -1.421875 17.65625 -0.515625 
Q 12.796875 0.390625 7.625 2.203125 
L 7.625 11.71875 
Q 11.71875 9.328125 16.59375 8.109375 
Q 21.484375 6.890625 26.8125 6.890625 
Q 36.078125 6.890625 40.9375 10.546875 
Q 45.796875 14.203125 45.796875 21.1875 
Q 45.796875 27.640625 41.28125 31.265625 
Q 36.765625 34.90625 28.71875 34.90625 
L 20.21875 34.90625 
L 20.21875 43.015625 
L 29.109375 43.015625 
Q 36.375 43.015625 40.234375 45.921875 
Q 44.09375 48.828125 44.09375 54.296875 
Q 44.09375 59.90625 40.109375 62.90625 
Q 36.140625 65.921875 28.71875 65.921875 
Q 24.65625 65.921875 20.015625 65.03125 
Q 15.375 64.15625 9.8125 62.3125 
L 9.8125 71.09375 
Q 15.4375 72.65625 20.34375 73.4375 
Q 25.25 74.21875 29.59375 74.21875 
Q 40.828125 74.21875 47.359375 69.109375 
Q 53.90625 64.015625 53.90625 55.328125 
Q 53.90625 49.265625 50.4375 45.09375 
Q 46.96875 40.921875 40.578125 39.3125 
z
" id="DejaVuSans-51"/>
      </defs>
      <g transform="translate(500.332891 392.598437)scale(0.1 -0.1)">
       <use xlink:href="#DejaVuSans-51"/>
       <use x="63.623047" xlink:href="#DejaVuSans-46"/>
       <use x="95.410156" xlink:href="#DejaVuSans-48"/>
      </g>
     </g>
    </g>
    <g id="xtick_8">
     <g id="line2d_15">
      <path clip-path="url(#p610ead3030)" d="M 573.401075 378 
L 573.401075 51.84 
" style="fill:none;stroke:#d3d3d3;stroke-dasharray:2.22,0.96;stroke-dashoffset:0;stroke-width:0.6;"/>
     </g>
     <g id="line2d_16">
      <g>
       <use style="stroke:#000000;stroke-width:0.8;" x="573.401075" xlink:href="#m7dff66daa6" y="378"/>
      </g>
     </g>
     <g id="text_8">
      <!-- 3.5 -->
      <g transform="translate(565.449513 392.598437)scale(0.1 -0.1)">
       <use xlink:href="#DejaVuSans-51"/>
       <use x="63.623047" xlink:href="#DejaVuSans-46"/>
       <use x="95.410156" xlink:href="#DejaVuSans-53"/>
      </g>
     </g>
    </g>
    <g id="xtick_9">
     <g id="line2d_17">
      <path clip-path="url(#p610ead3030)" d="M 638.517697 378 
L 638.517697 51.84 
" style="fill:none;stroke:#d3d3d3;stroke-dasharray:2.22,0.96;stroke-dashoffset:0;stroke-width:0.6;"/>
     </g>
     <g id="line2d_18">
      <g>
       <use style="stroke:#000000;stroke-width:0.8;" x="638.517697" xlink:href="#m7dff66daa6" y="378"/>
      </g>
     </g>
     <g id="text_9">
      <!-- 4.0 -->
      <defs>
       <path d="M 37.796875 64.3125 
L 12.890625 25.390625 
L 37.796875 25.390625 
z
M 35.203125 72.90625 
L 47.609375 72.90625 
L 47.609375 25.390625 
L 58.015625 25.390625 
L 58.015625 17.1875 
L 47.609375 17.1875 
L 47.609375 0 
L 37.796875 0 
L 37.796875 17.1875 
L 4.890625 17.1875 
L 4.890625 26.703125 
z
" id="DejaVuSans-52"/>
      </defs>
      <g transform="translate(630.566134 392.598437)scale(0.1 -0.1)">
       <use xlink:href="#DejaVuSans-52"/>
       <use x="63.623047" xlink:href="#DejaVuSans-46"/>
       <use x="95.410156" xlink:href="#DejaVuSans-48"/>
      </g>
     </g>
    </g>
    <g id="text_10">
     <!-- x -->
     <defs>
      <path d="M 54.890625 54.6875 
L 35.109375 28.078125 
L 55.90625 0 
L 45.3125 0 
L 29.390625 21.484375 
L 13.484375 0 
L 2.875 0 
L 24.125 28.609375 
L 4.6875 54.6875 
L 15.28125 54.6875 
L 29.78125 35.203125 
L 44.28125 54.6875 
z
" id="DejaVuSans-120"/>
     </defs>
     <g transform="translate(366.040625 406.276563)scale(0.1 -0.1)">
      <use xlink:href="#DejaVuSans-120"/>
     </g>
    </g>
   </g>
   <g id="matplotlib.axis_2">
    <g id="ytick_1">
     <g id="line2d_19">
      <path clip-path="url(#p610ead3030)" d="M 90 367.944061 
L 648 367.944061 
" style="fill:none;stroke:#d3d3d3;stroke-dasharray:2.22,0.96;stroke-dashoffset:0;stroke-width:0.6;"/>
     </g>
     <g id="line2d_20">
      <defs>
       <path d="M 0 0 
L -3.5 0 
" id="mb93f4b1082" style="stroke:#000000;stroke-width:0.8;"/>
      </defs>
      <g>
       <use style="stroke:#000000;stroke-width:0.8;" x="90" xlink:href="#mb93f4b1082" y="367.944061"/>
      </g>
     </g>
     <g id="text_11">
      <!-- −1.5 -->
      <defs>
       <path d="M 10.59375 35.5 
L 73.1875 35.5 
L 73.1875 27.203125 
L 10.59375 27.203125 
z
" id="DejaVuSans-8722"/>
      </defs>
      <g transform="translate(58.717187 371.743279)scale(0.1 -0.1)">
       <use xlink:href="#DejaVuSans-8722"/>
       <use x="83.789062" xlink:href="#DejaVuSans-49"/>
       <use x="147.412109" xlink:href="#DejaVuSans-46"/>
       <use x="179.199219" xlink:href="#DejaVuSans-53"/>
      </g>
     </g>
    </g>
    <g id="ytick_2">
     <g id="line2d_21">
      <path clip-path="url(#p610ead3030)" d="M 90 302.827439 
L 648 302.827439 
" style="fill:none;stroke:#d3d3d3;stroke-dasharray:2.22,0.96;stroke-dashoffset:0;stroke-width:0.6;"/>
     </g>
     <g id="line2d_22">
      <g>
       <use style="stroke:#000000;stroke-width:0.8;" x="90" xlink:href="#mb93f4b1082" y="302.827439"/>
      </g>
     </g>
     <g id="text_12">
      <!-- −1.0 -->
      <g transform="translate(58.717187 306.626658)scale(0.1 -0.1)">
       <use xlink:href="#DejaVuSans-8722"/>
       <use x="83.789062" xlink:href="#DejaVuSans-49"/>
       <use x="147.412109" xlink:href="#DejaVuSans-46"/>
       <use x="179.199219" xlink:href="#DejaVuSans-48"/>
      </g>
     </g>
    </g>
    <g id="ytick_3">
     <g id="line2d_23">
      <path clip-path="url(#p610ead3030)" d="M 90 237.710818 
L 648 237.710818 
" style="fill:none;stroke:#d3d3d3;stroke-dasharray:2.22,0.96;stroke-dashoffset:0;stroke-width:0.6;"/>
     </g>
     <g id="line2d_24">
      <g>
       <use style="stroke:#000000;stroke-width:0.8;" x="90" xlink:href="#mb93f4b1082" y="237.710818"/>
      </g>
     </g>
     <g id="text_13">
      <!-- −0.5 -->
      <g transform="translate(58.717187 241.510036)scale(0.1 -0.1)">
       <use xlink:href="#DejaVuSans-8722"/>
       <use x="83.789062" xlink:href="#DejaVuSans-48"/>
       <use x="147.412109" xlink:href="#DejaVuSans-46"/>
       <use x="179.199219" xlink:href="#DejaVuSans-53"/>
      </g>
     </g>
    </g>
    <g id="ytick_4">
     <g id="line2d_25">
      <path clip-path="url(#p610ead3030)" d="M 90 172.594196 
L 648 172.594196 
" style="fill:none;stroke:#d3d3d3;stroke-dasharray:2.22,0.96;stroke-dashoffset:0;stroke-width:0.6;"/>
     </g>
     <g id="line2d_26">
      <g>
       <use style="stroke:#000000;stroke-width:0.8;" x="90" xlink:href="#mb93f4b1082" y="172.594196"/>
      </g>
     </g>
     <g id="text_14">
      <!-- 0.0 -->
      <g transform="translate(67.096875 176.393415)scale(0.1 -0.1)">
       <use xlink:href="#DejaVuSans-48"/>
       <use x="63.623047" xlink:href="#DejaVuSans-46"/>
       <use x="95.410156" xlink:href="#DejaVuSans-48"/>
      </g>
     </g>
    </g>
    <g id="ytick_5">
     <g id="line2d_27">
      <path clip-path="url(#p610ead3030)" d="M 90 107.477574 
L 648 107.477574 
" style="fill:none;stroke:#d3d3d3;stroke-dasharray:2.22,0.96;stroke-dashoffset:0;stroke-width:0.6;"/>
     </g>
     <g id="line2d_28">
      <g>
       <use style="stroke:#000000;stroke-width:0.8;" x="90" xlink:href="#mb93f4b1082" y="107.477574"/>
      </g>
     </g>
     <g id="text_15">
      <!-- 0.5 -->
      <g transform="translate(67.096875 111.276793)scale(0.1 -0.1)">
       <use xlink:href="#DejaVuSans-48"/>
       <use x="63.623047" xlink:href="#DejaVuSans-46"/>
       <use x="95.410156" xlink:href="#DejaVuSans-53"/>
      </g>
     </g>
    </g>
    <g id="text_16">
     <!-- y -->
     <defs>
      <path d="M 32.171875 -5.078125 
Q 28.375 -14.84375 24.75 -17.8125 
Q 21.140625 -20.796875 15.09375 -20.796875 
L 7.90625 -20.796875 
L 7.90625 -13.28125 
L 13.1875 -13.28125 
Q 16.890625 -13.28125 18.9375 -11.515625 
Q 21 -9.765625 23.484375 -3.21875 
L 25.09375 0.875 
L 2.984375 54.6875 
L 12.5 54.6875 
L 29.59375 11.921875 
L 46.6875 54.6875 
L 56.203125 54.6875 
z
" id="DejaVuSans-121"/>
     </defs>
     <g transform="translate(52.6375 217.879375)rotate(-90)scale(0.1 -0.1)">
      <use xlink:href="#DejaVuSans-121"/>
     </g>
    </g>
   </g>
   <g id="patch_3">
    <path d="M 90 378 
L 90 51.84 
" style="fill:none;stroke:#000000;stroke-linecap:square;stroke-linejoin:miter;stroke-width:0.8;"/>
   </g>
   <g id="patch_4">
    <path d="M 648 378 
L 648 51.84 
" style="fill:none;stroke:#000000;stroke-linecap:square;stroke-linejoin:miter;stroke-width:0.8;"/>
   </g>
   <g id="patch_5">
    <path d="M 90 378 
L 648 378 
" style="fill:none;stroke:#000000;stroke-linecap:square;stroke-linejoin:miter;stroke-width:0.8;"/>
   </g>
   <g id="patch_6">
    <path d="M 90 51.84 
L 648 51.84 
" style="fill:none;stroke:#000000;stroke-linecap:square;stroke-linejoin:miter;stroke-width:0.8;"/>
   </g>
  </g>
 </g>
 <defs>
  <clipPath id="p610ead3030">
   <rect height="326.16" width="558" x="90" y="51.84"/>
  </clipPath>
 </defs>
</svg>
