<?xml version="1.0" encoding="utf-8" standalone="no"?>
<!DOCTYPE svg PUBLIC "-//W3C//DTD SVG 1.1//EN"
  "http://www.w3.org/Graphics/SVG/1.1/DTD/svg11.dtd">
<!-- Created with matplotlib (https://matplotlib.org/) -->
<svg height="432pt" version="1.1" viewBox="0 0 720 432" width="720pt" xmlns="http://www.w3.org/2000/svg" xmlns:xlink="http://www.w3.org/1999/xlink">
 <defs>
  <style type="text/css">
*{stroke-linecap:butt;stroke-linejoin:round;}
  </style>
 </defs>
 <g id="figure_1">
  <g id="patch_1">
   <path d="M 0 432 
L 720 432 
L 720 0 
L 0 0 
z
" style="fill:#ffffff;"/>
  </g>
  <g id="axes_1">
   <g id="patch_2">
    <path d="M 90 378 
L 648 378 
L 648 51.84 
L 90 51.84 
z
" style="fill:#ffffff;"/>
   </g>
   <g id="PathCollection_1">
    <defs>
     <path d="M 0 2.236068 
C 0.593012 2.236068 1.161816 2.000462 1.581139 1.581139 
C 2.000462 1.161816 2.236068 0.593012 2.236068 0 
C 2.236068 -0.593012 2.000462 -1.161816 1.581139 -1.581139 
C 1.161816 -2.000462 0.593012 -2.236068 0 -2.236068 
C -0.593012 -2.236068 -1.161816 -2.000462 -1.581139 -1.581139 
C -2.000462 -1.161816 -2.236068 -0.593012 -2.236068 0 
C -2.236068 0.593012 -2.000462 1.161816 -1.581139 1.581139 
C -1.161816 2.000462 -0.593012 2.236068 0 2.236068 
z
" id="m5802ef7299" style="stroke:#1f77b4;"/>
    </defs>
    <g clip-path="url(#p96ed0c7ab0)">
     <use style="fill:#1f77b4;stroke:#1f77b4;" x="210.576505" xlink:href="#m5802ef7299" y="360.966659"/>
     <use style="fill:#1f77b4;stroke:#1f77b4;" x="210.657945" xlink:href="#m5802ef7299" y="360.966659"/>
     <use style="fill:#1f77b4;stroke:#1f77b4;" x="210.936424" xlink:href="#m5802ef7299" y="360.966659"/>
     <use style="fill:#1f77b4;stroke:#1f77b4;" x="211.400555" xlink:href="#m5802ef7299" y="360.966659"/>
     <use style="fill:#1f77b4;stroke:#1f77b4;" x="212.050339" xlink:href="#m5802ef7299" y="360.966659"/>
     <use style="fill:#1f77b4;stroke:#1f77b4;" x="212.885775" xlink:href="#m5802ef7299" y="360.966659"/>
     <use style="fill:#1f77b4;stroke:#1f77b4;" x="213.906864" xlink:href="#m5802ef7299" y="360.966659"/>
     <use style="fill:#1f77b4;stroke:#1f77b4;" x="215.113606" xlink:href="#m5802ef7299" y="360.966659"/>
     <use style="fill:#1f77b4;stroke:#1f77b4;" x="216.506" xlink:href="#m5802ef7299" y="360.966659"/>
     <use style="fill:#1f77b4;stroke:#1f77b4;" x="218.084046" xlink:href="#m5802ef7299" y="360.966659"/>
     <use style="fill:#1f77b4;stroke:#1f77b4;" x="219.847745" xlink:href="#m5802ef7299" y="360.966659"/>
     <use style="fill:#1f77b4;stroke:#1f77b4;" x="221.797097" xlink:href="#m5802ef7299" y="360.966659"/>
     <use style="fill:#1f77b4;stroke:#1f77b4;" x="223.932101" xlink:href="#m5802ef7299" y="360.966659"/>
     <use style="fill:#1f77b4;stroke:#1f77b4;" x="226.252758" xlink:href="#m5802ef7299" y="360.966659"/>
     <use style="fill:#1f77b4;stroke:#1f77b4;" x="228.759067" xlink:href="#m5802ef7299" y="360.966659"/>
     <use style="fill:#1f77b4;stroke:#1f77b4;" x="231.451029" xlink:href="#m5802ef7299" y="360.966659"/>
     <use style="fill:#1f77b4;stroke:#1f77b4;" x="234.328643" xlink:href="#m5802ef7299" y="360.966659"/>
     <use style="fill:#1f77b4;stroke:#1f77b4;" x="237.39191" xlink:href="#m5802ef7299" y="360.966659"/>
     <use style="fill:#1f77b4;stroke:#1f77b4;" x="240.640829" xlink:href="#m5802ef7299" y="360.966659"/>
     <use style="fill:#1f77b4;stroke:#1f77b4;" x="244.075401" xlink:href="#m5802ef7299" y="360.966659"/>
     <use style="fill:#1f77b4;stroke:#1f77b4;" x="247.695625" xlink:href="#m5802ef7299" y="360.966659"/>
     <use style="fill:#1f77b4;stroke:#1f77b4;" x="251.408676" xlink:href="#m5802ef7299" y="360.966659"/>
     <use style="fill:#1f77b4;stroke:#1f77b4;" x="255.121727" xlink:href="#m5802ef7299" y="360.966659"/>
     <use style="fill:#1f77b4;stroke:#1f77b4;" x="258.834777" xlink:href="#m5802ef7299" y="360.966659"/>
     <use style="fill:#1f77b4;stroke:#1f77b4;" x="262.547828" xlink:href="#m5802ef7299" y="360.966659"/>
     <use style="fill:#1f77b4;stroke:#1f77b4;" x="266.260879" xlink:href="#m5802ef7299" y="360.966659"/>
     <use style="fill:#1f77b4;stroke:#1f77b4;" x="269.973929" xlink:href="#m5802ef7299" y="360.966659"/>
     <use style="fill:#1f77b4;stroke:#1f77b4;" x="273.68698" xlink:href="#m5802ef7299" y="360.966659"/>
     <use style="fill:#1f77b4;stroke:#1f77b4;" x="277.400031" xlink:href="#m5802ef7299" y="360.966659"/>
     <use style="fill:#1f77b4;stroke:#1f77b4;" x="281.113081" xlink:href="#m5802ef7299" y="360.966659"/>
     <use style="fill:#1f77b4;stroke:#1f77b4;" x="284.826132" xlink:href="#m5802ef7299" y="360.966659"/>
     <use style="fill:#1f77b4;stroke:#1f77b4;" x="288.539182" xlink:href="#m5802ef7299" y="360.966659"/>
     <use style="fill:#1f77b4;stroke:#1f77b4;" x="292.252233" xlink:href="#m5802ef7299" y="360.966659"/>
     <use style="fill:#1f77b4;stroke:#1f77b4;" x="295.965284" xlink:href="#m5802ef7299" y="360.966659"/>
     <use style="fill:#1f77b4;stroke:#1f77b4;" x="299.678334" xlink:href="#m5802ef7299" y="360.966659"/>
     <use style="fill:#1f77b4;stroke:#1f77b4;" x="303.391385" xlink:href="#m5802ef7299" y="360.966659"/>
     <use style="fill:#1f77b4;stroke:#1f77b4;" x="307.104436" xlink:href="#m5802ef7299" y="360.966659"/>
     <use style="fill:#1f77b4;stroke:#1f77b4;" x="310.817486" xlink:href="#m5802ef7299" y="360.966659"/>
     <use style="fill:#1f77b4;stroke:#1f77b4;" x="314.530537" xlink:href="#m5802ef7299" y="360.966659"/>
     <use style="fill:#1f77b4;stroke:#1f77b4;" x="318.243588" xlink:href="#m5802ef7299" y="360.966659"/>
     <use style="fill:#1f77b4;stroke:#1f77b4;" x="321.956638" xlink:href="#m5802ef7299" y="360.966659"/>
     <use style="fill:#1f77b4;stroke:#1f77b4;" x="325.669689" xlink:href="#m5802ef7299" y="360.966659"/>
     <use style="fill:#1f77b4;stroke:#1f77b4;" x="329.38274" xlink:href="#m5802ef7299" y="360.966659"/>
     <use style="fill:#1f77b4;stroke:#1f77b4;" x="333.09579" xlink:href="#m5802ef7299" y="360.966659"/>
     <use style="fill:#1f77b4;stroke:#1f77b4;" x="336.808841" xlink:href="#m5802ef7299" y="360.966659"/>
     <use style="fill:#1f77b4;stroke:#1f77b4;" x="340.521892" xlink:href="#m5802ef7299" y="360.966659"/>
     <use style="fill:#1f77b4;stroke:#1f77b4;" x="344.234942" xlink:href="#m5802ef7299" y="360.966659"/>
     <use style="fill:#1f77b4;stroke:#1f77b4;" x="347.947993" xlink:href="#m5802ef7299" y="360.966659"/>
     <use style="fill:#1f77b4;stroke:#1f77b4;" x="351.661044" xlink:href="#m5802ef7299" y="360.966659"/>
     <use style="fill:#1f77b4;stroke:#1f77b4;" x="355.374094" xlink:href="#m5802ef7299" y="360.966659"/>
     <use style="fill:#1f77b4;stroke:#1f77b4;" x="359.087145" xlink:href="#m5802ef7299" y="360.966659"/>
     <use style="fill:#1f77b4;stroke:#1f77b4;" x="362.800196" xlink:href="#m5802ef7299" y="360.966659"/>
     <use style="fill:#1f77b4;stroke:#1f77b4;" x="366.513246" xlink:href="#m5802ef7299" y="360.966659"/>
     <use style="fill:#1f77b4;stroke:#1f77b4;" x="370.226297" xlink:href="#m5802ef7299" y="360.966659"/>
     <use style="fill:#1f77b4;stroke:#1f77b4;" x="373.939348" xlink:href="#m5802ef7299" y="360.966659"/>
     <use style="fill:#1f77b4;stroke:#1f77b4;" x="377.652398" xlink:href="#m5802ef7299" y="360.966659"/>
     <use style="fill:#1f77b4;stroke:#1f77b4;" x="381.365449" xlink:href="#m5802ef7299" y="360.966659"/>
     <use style="fill:#1f77b4;stroke:#1f77b4;" x="385.078499" xlink:href="#m5802ef7299" y="360.966659"/>
     <use style="fill:#1f77b4;stroke:#1f77b4;" x="388.79155" xlink:href="#m5802ef7299" y="360.966659"/>
     <use style="fill:#1f77b4;stroke:#1f77b4;" x="392.504601" xlink:href="#m5802ef7299" y="360.966659"/>
     <use style="fill:#1f77b4;stroke:#1f77b4;" x="396.217651" xlink:href="#m5802ef7299" y="360.966659"/>
     <use style="fill:#1f77b4;stroke:#1f77b4;" x="399.930702" xlink:href="#m5802ef7299" y="360.966659"/>
     <use style="fill:#1f77b4;stroke:#1f77b4;" x="403.643753" xlink:href="#m5802ef7299" y="360.966659"/>
     <use style="fill:#1f77b4;stroke:#1f77b4;" x="407.356803" xlink:href="#m5802ef7299" y="360.966659"/>
     <use style="fill:#1f77b4;stroke:#1f77b4;" x="411.069854" xlink:href="#m5802ef7299" y="360.966659"/>
     <use style="fill:#1f77b4;stroke:#1f77b4;" x="414.782905" xlink:href="#m5802ef7299" y="360.966659"/>
     <use style="fill:#1f77b4;stroke:#1f77b4;" x="418.495955" xlink:href="#m5802ef7299" y="360.966659"/>
     <use style="fill:#1f77b4;stroke:#1f77b4;" x="422.209006" xlink:href="#m5802ef7299" y="360.966659"/>
     <use style="fill:#1f77b4;stroke:#1f77b4;" x="425.922057" xlink:href="#m5802ef7299" y="360.966659"/>
     <use style="fill:#1f77b4;stroke:#1f77b4;" x="429.635107" xlink:href="#m5802ef7299" y="360.966659"/>
     <use style="fill:#1f77b4;stroke:#1f77b4;" x="433.348158" xlink:href="#m5802ef7299" y="360.966659"/>
     <use style="fill:#1f77b4;stroke:#1f77b4;" x="437.061209" xlink:href="#m5802ef7299" y="360.966659"/>
     <use style="fill:#1f77b4;stroke:#1f77b4;" x="440.767741" xlink:href="#m5802ef7299" y="360.931926"/>
     <use style="fill:#1f77b4;stroke:#1f77b4;" x="444.475297" xlink:href="#m5802ef7299" y="360.736905"/>
     <use style="fill:#1f77b4;stroke:#1f77b4;" x="448.167332" xlink:href="#m5802ef7299" y="360.347113"/>
     <use style="fill:#1f77b4;stroke:#1f77b4;" x="451.828495" xlink:href="#m5802ef7299" y="359.732577"/>
     <use style="fill:#1f77b4;stroke:#1f77b4;" x="455.436539" xlink:href="#m5802ef7299" y="358.859633"/>
     <use style="fill:#1f77b4;stroke:#1f77b4;" x="458.960171" xlink:href="#m5802ef7299" y="357.692682"/>
     <use style="fill:#1f77b4;stroke:#1f77b4;" x="462.357421" xlink:href="#m5802ef7299" y="356.198103"/>
     <use style="fill:#1f77b4;stroke:#1f77b4;" x="465.576124" xlink:href="#m5802ef7299" y="354.350867"/>
     <use style="fill:#1f77b4;stroke:#1f77b4;" x="468.558559" xlink:href="#m5802ef7299" y="352.142857"/>
     <use style="fill:#1f77b4;stroke:#1f77b4;" x="471.251055" xlink:href="#m5802ef7299" y="349.58943"/>
     <use style="fill:#1f77b4;stroke:#1f77b4;" x="473.615709" xlink:href="#m5802ef7299" y="346.729542"/>
     <use style="fill:#1f77b4;stroke:#1f77b4;" x="475.63826" xlink:href="#m5802ef7299" y="343.617916"/>
     <use style="fill:#1f77b4;stroke:#1f77b4;" x="477.328038" xlink:href="#m5802ef7299" y="340.3133"/>
     <use style="fill:#1f77b4;stroke:#1f77b4;" x="478.711482" xlink:href="#m5802ef7299" y="336.868782"/>
     <use style="fill:#1f77b4;stroke:#1f77b4;" x="479.823833" xlink:href="#m5802ef7299" y="333.327089"/>
     <use style="fill:#1f77b4;stroke:#1f77b4;" x="480.702528" xlink:href="#m5802ef7299" y="329.720076"/>
     <use style="fill:#1f77b4;stroke:#1f77b4;" x="481.383279" xlink:href="#m5802ef7299" y="326.070351"/>
     <use style="fill:#1f77b4;stroke:#1f77b4;" x="481.898311" xlink:href="#m5802ef7299" y="322.393456"/>
     <use style="fill:#1f77b4;stroke:#1f77b4;" x="482.275928" xlink:href="#m5802ef7299" y="318.699834"/>
     <use style="fill:#1f77b4;stroke:#1f77b4;" x="482.540747" xlink:href="#m5802ef7299" y="314.996356"/>
     <use style="fill:#1f77b4;stroke:#1f77b4;" x="482.7142" xlink:href="#m5802ef7299" y="311.287434"/>
     <use style="fill:#1f77b4;stroke:#1f77b4;" x="482.815106" xlink:href="#m5802ef7299" y="307.5758"/>
     <use style="fill:#1f77b4;stroke:#1f77b4;" x="482.86022" xlink:href="#m5802ef7299" y="303.863049"/>
     <use style="fill:#1f77b4;stroke:#1f77b4;" x="482.866887" xlink:href="#m5802ef7299" y="300.158799"/>
     <use style="fill:#1f77b4;stroke:#1f77b4;" x="482.866887" xlink:href="#m5802ef7299" y="296.445749"/>
     <use style="fill:#1f77b4;stroke:#1f77b4;" x="482.866887" xlink:href="#m5802ef7299" y="292.732698"/>
     <use style="fill:#1f77b4;stroke:#1f77b4;" x="482.866887" xlink:href="#m5802ef7299" y="289.019648"/>
     <use style="fill:#1f77b4;stroke:#1f77b4;" x="482.866887" xlink:href="#m5802ef7299" y="285.306597"/>
     <use style="fill:#1f77b4;stroke:#1f77b4;" x="482.866887" xlink:href="#m5802ef7299" y="281.593546"/>
     <use style="fill:#1f77b4;stroke:#1f77b4;" x="482.866887" xlink:href="#m5802ef7299" y="277.880496"/>
     <use style="fill:#1f77b4;stroke:#1f77b4;" x="482.866887" xlink:href="#m5802ef7299" y="274.167445"/>
     <use style="fill:#1f77b4;stroke:#1f77b4;" x="482.866887" xlink:href="#m5802ef7299" y="270.454394"/>
     <use style="fill:#1f77b4;stroke:#1f77b4;" x="482.866887" xlink:href="#m5802ef7299" y="266.741344"/>
     <use style="fill:#1f77b4;stroke:#1f77b4;" x="482.866887" xlink:href="#m5802ef7299" y="263.028293"/>
     <use style="fill:#1f77b4;stroke:#1f77b4;" x="482.866887" xlink:href="#m5802ef7299" y="259.315242"/>
     <use style="fill:#1f77b4;stroke:#1f77b4;" x="482.866887" xlink:href="#m5802ef7299" y="255.602192"/>
     <use style="fill:#1f77b4;stroke:#1f77b4;" x="482.866887" xlink:href="#m5802ef7299" y="251.889141"/>
     <use style="fill:#1f77b4;stroke:#1f77b4;" x="482.866887" xlink:href="#m5802ef7299" y="248.17609"/>
     <use style="fill:#1f77b4;stroke:#1f77b4;" x="482.866887" xlink:href="#m5802ef7299" y="244.46304"/>
     <use style="fill:#1f77b4;stroke:#1f77b4;" x="482.866887" xlink:href="#m5802ef7299" y="240.749989"/>
     <use style="fill:#1f77b4;stroke:#1f77b4;" x="482.866887" xlink:href="#m5802ef7299" y="237.036938"/>
     <use style="fill:#1f77b4;stroke:#1f77b4;" x="482.866887" xlink:href="#m5802ef7299" y="233.323888"/>
     <use style="fill:#1f77b4;stroke:#1f77b4;" x="482.866887" xlink:href="#m5802ef7299" y="229.610837"/>
     <use style="fill:#1f77b4;stroke:#1f77b4;" x="482.866887" xlink:href="#m5802ef7299" y="225.897786"/>
     <use style="fill:#1f77b4;stroke:#1f77b4;" x="482.866887" xlink:href="#m5802ef7299" y="222.184736"/>
     <use style="fill:#1f77b4;stroke:#1f77b4;" x="482.866887" xlink:href="#m5802ef7299" y="218.471685"/>
     <use style="fill:#1f77b4;stroke:#1f77b4;" x="482.866887" xlink:href="#m5802ef7299" y="214.758634"/>
     <use style="fill:#1f77b4;stroke:#1f77b4;" x="482.866887" xlink:href="#m5802ef7299" y="211.045584"/>
     <use style="fill:#1f77b4;stroke:#1f77b4;" x="482.866887" xlink:href="#m5802ef7299" y="207.332533"/>
     <use style="fill:#1f77b4;stroke:#1f77b4;" x="482.866887" xlink:href="#m5802ef7299" y="203.619483"/>
     <use style="fill:#1f77b4;stroke:#1f77b4;" x="482.866887" xlink:href="#m5802ef7299" y="199.906432"/>
     <use style="fill:#1f77b4;stroke:#1f77b4;" x="482.866887" xlink:href="#m5802ef7299" y="196.193381"/>
     <use style="fill:#1f77b4;stroke:#1f77b4;" x="482.866887" xlink:href="#m5802ef7299" y="192.480331"/>
     <use style="fill:#1f77b4;stroke:#1f77b4;" x="482.866887" xlink:href="#m5802ef7299" y="188.76728"/>
     <use style="fill:#1f77b4;stroke:#1f77b4;" x="482.866887" xlink:href="#m5802ef7299" y="185.054229"/>
     <use style="fill:#1f77b4;stroke:#1f77b4;" x="482.866887" xlink:href="#m5802ef7299" y="181.341179"/>
     <use style="fill:#1f77b4;stroke:#1f77b4;" x="482.866887" xlink:href="#m5802ef7299" y="177.628128"/>
     <use style="fill:#1f77b4;stroke:#1f77b4;" x="482.866887" xlink:href="#m5802ef7299" y="173.915077"/>
     <use style="fill:#1f77b4;stroke:#1f77b4;" x="482.866887" xlink:href="#m5802ef7299" y="170.202027"/>
     <use style="fill:#1f77b4;stroke:#1f77b4;" x="482.866887" xlink:href="#m5802ef7299" y="166.488976"/>
     <use style="fill:#1f77b4;stroke:#1f77b4;" x="482.866887" xlink:href="#m5802ef7299" y="162.775925"/>
     <use style="fill:#1f77b4;stroke:#1f77b4;" x="482.866887" xlink:href="#m5802ef7299" y="159.062875"/>
     <use style="fill:#1f77b4;stroke:#1f77b4;" x="482.866887" xlink:href="#m5802ef7299" y="155.349824"/>
     <use style="fill:#1f77b4;stroke:#1f77b4;" x="482.866887" xlink:href="#m5802ef7299" y="151.636773"/>
     <use style="fill:#1f77b4;stroke:#1f77b4;" x="482.866887" xlink:href="#m5802ef7299" y="147.923723"/>
     <use style="fill:#1f77b4;stroke:#1f77b4;" x="482.866887" xlink:href="#m5802ef7299" y="144.210672"/>
     <use style="fill:#1f77b4;stroke:#1f77b4;" x="482.866887" xlink:href="#m5802ef7299" y="140.497621"/>
     <use style="fill:#1f77b4;stroke:#1f77b4;" x="482.866887" xlink:href="#m5802ef7299" y="136.784571"/>
     <use style="fill:#1f77b4;stroke:#1f77b4;" x="482.866887" xlink:href="#m5802ef7299" y="133.07152"/>
     <use style="fill:#1f77b4;stroke:#1f77b4;" x="482.866887" xlink:href="#m5802ef7299" y="129.358469"/>
     <use style="fill:#1f77b4;stroke:#1f77b4;" x="482.866935" xlink:href="#m5802ef7299" y="125.650009"/>
     <use style="fill:#1f77b4;stroke:#1f77b4;" x="482.898488" xlink:href="#m5802ef7299" y="121.937134"/>
     <use style="fill:#1f77b4;stroke:#1f77b4;" x="482.998065" xlink:href="#m5802ef7299" y="118.225483"/>
     <use style="fill:#1f77b4;stroke:#1f77b4;" x="483.181215" xlink:href="#m5802ef7299" y="114.517047"/>
     <use style="fill:#1f77b4;stroke:#1f77b4;" x="483.465653" xlink:href="#m5802ef7299" y="110.815047"/>
     <use style="fill:#1f77b4;stroke:#1f77b4;" x="483.871744" xlink:href="#m5802ef7299" y="107.124471"/>
     <use style="fill:#1f77b4;stroke:#1f77b4;" x="484.422988" xlink:href="#m5802ef7299" y="103.452858"/>
     <use style="fill:#1f77b4;stroke:#1f77b4;" x="485.146421" xlink:href="#m5802ef7299" y="99.81138"/>
     <use style="fill:#1f77b4;stroke:#1f77b4;" x="486.072718" xlink:href="#m5802ef7299" y="96.216321"/>
     <use style="fill:#1f77b4;stroke:#1f77b4;" x="487.235615" xlink:href="#m5802ef7299" y="92.690922"/>
     <use style="fill:#1f77b4;stroke:#1f77b4;" x="488.670057" xlink:href="#m5802ef7299" y="89.267334"/>
     <use style="fill:#1f77b4;stroke:#1f77b4;" x="490.40832" xlink:href="#m5802ef7299" y="85.987944"/>
     <use style="fill:#1f77b4;stroke:#1f77b4;" x="492.473775" xlink:href="#m5802ef7299" y="82.90458"/>
     <use style="fill:#1f77b4;stroke:#1f77b4;" x="494.843634" xlink:href="#m5802ef7299" y="80.104978"/>
     <use style="fill:#1f77b4;stroke:#1f77b4;" x="497.420876" xlink:href="#m5802ef7299" y="77.689538"/>
     <use style="fill:#1f77b4;stroke:#1f77b4;" x="500.101272" xlink:href="#m5802ef7299" y="75.685242"/>
     <use style="fill:#1f77b4;stroke:#1f77b4;" x="502.812103" xlink:href="#m5802ef7299" y="74.058199"/>
     <use style="fill:#1f77b4;stroke:#1f77b4;" x="505.49115" xlink:href="#m5802ef7299" y="72.761605"/>
     <use style="fill:#1f77b4;stroke:#1f77b4;" x="508.09012" xlink:href="#m5802ef7299" y="71.744423"/>
     <use style="fill:#1f77b4;stroke:#1f77b4;" x="510.573953" xlink:href="#m5802ef7299" y="70.957608"/>
     <use style="fill:#1f77b4;stroke:#1f77b4;" x="512.918289" xlink:href="#m5802ef7299" y="70.357366"/>
     <use style="fill:#1f77b4;stroke:#1f77b4;" x="515.106671" xlink:href="#m5802ef7299" y="69.906234"/>
     <use style="fill:#1f77b4;stroke:#1f77b4;" x="517.128187" xlink:href="#m5802ef7299" y="69.572941"/>
     <use style="fill:#1f77b4;stroke:#1f77b4;" x="518.975705" xlink:href="#m5802ef7299" y="69.331744"/>
     <use style="fill:#1f77b4;stroke:#1f77b4;" x="520.644625" xlink:href="#m5802ef7299" y="69.161608"/>
     <use style="fill:#1f77b4;stroke:#1f77b4;" x="522.13203" xlink:href="#m5802ef7299" y="69.045431"/>
     <use style="fill:#1f77b4;stroke:#1f77b4;" x="523.436107" xlink:href="#m5802ef7299" y="68.969371"/>
     <use style="fill:#1f77b4;stroke:#1f77b4;" x="524.555766" xlink:href="#m5802ef7299" y="68.922291"/>
     <use style="fill:#1f77b4;stroke:#1f77b4;" x="525.490378" xlink:href="#m5802ef7299" y="68.895319"/>
     <use style="fill:#1f77b4;stroke:#1f77b4;" x="526.239602" xlink:href="#m5802ef7299" y="68.881507"/>
     <use style="fill:#1f77b4;stroke:#1f77b4;" x="526.80327" xlink:href="#m5802ef7299" y="68.875566"/>
     <use style="fill:#1f77b4;stroke:#1f77b4;" x="527.181314" xlink:href="#m5802ef7299" y="68.873679"/>
     <use style="fill:#1f77b4;stroke:#1f77b4;" x="527.37371" xlink:href="#m5802ef7299" y="68.873355"/>
     <use style="fill:#1f77b4;stroke:#1f77b4;" x="527.423495" xlink:href="#m5802ef7299" y="68.873341"/>
     <use style="fill:#1f77b4;stroke:#1f77b4;" x="527.423495" xlink:href="#m5802ef7299" y="68.873341"/>
    </g>
   </g>
   <g id="PathCollection_2">
    <defs>
     <path d="M 0 2.236068 
C 0.593012 2.236068 1.161816 2.000462 1.581139 1.581139 
C 2.000462 1.161816 2.236068 0.593012 2.236068 0 
C 2.236068 -0.593012 2.000462 -1.161816 1.581139 -1.581139 
C 1.161816 -2.000462 0.593012 -2.236068 0 -2.236068 
C -0.593012 -2.236068 -1.161816 -2.000462 -1.581139 -1.581139 
C -2.000462 -1.161816 -2.236068 -0.593012 -2.236068 0 
C -2.236068 0.593012 -2.000462 1.161816 -1.581139 1.581139 
C -1.161816 2.000462 -0.593012 2.236068 0 2.236068 
z
" id="m521f4a451f" style="stroke:#ff0000;"/>
    </defs>
    <g clip-path="url(#p96ed0c7ab0)">
     <use style="fill:#ff0000;stroke:#ff0000;" x="210.576505" xlink:href="#m521f4a451f" y="360.966659"/>
     <use style="fill:#ff0000;stroke:#ff0000;" x="438.310279" xlink:href="#m521f4a451f" y="360.966659"/>
     <use style="fill:#ff0000;stroke:#ff0000;" x="482.866887" xlink:href="#m521f4a451f" y="301.557849"/>
     <use style="fill:#ff0000;stroke:#ff0000;" x="482.866887" xlink:href="#m521f4a451f" y="125.806784"/>
     <use style="fill:#ff0000;stroke:#ff0000;" x="527.423495" xlink:href="#m521f4a451f" y="68.873341"/>
    </g>
   </g>
   <g id="matplotlib.axis_1">
    <g id="xtick_1">
     <g id="line2d_1">
      <path clip-path="url(#p96ed0c7ab0)" d="M 111.561821 378 
L 111.561821 51.84 
" style="fill:none;stroke:#d3d3d3;stroke-dasharray:2.22,0.96;stroke-dashoffset:0;stroke-width:0.6;"/>
     </g>
     <g id="line2d_2">
      <defs>
       <path d="M 0 0 
L 0 3.5 
" id="mc4a4e2e250" style="stroke:#000000;stroke-width:0.8;"/>
      </defs>
      <g>
       <use style="stroke:#000000;stroke-width:0.8;" x="111.561821" xlink:href="#mc4a4e2e250" y="378"/>
      </g>
     </g>
     <g id="text_1">
      <!-- −2 -->
      <defs>
       <path d="M 10.59375 35.5 
L 73.1875 35.5 
L 73.1875 27.203125 
L 10.59375 27.203125 
z
" id="DejaVuSans-8722"/>
       <path d="M 19.1875 8.296875 
L 53.609375 8.296875 
L 53.609375 0 
L 7.328125 0 
L 7.328125 8.296875 
Q 12.9375 14.109375 22.625 23.890625 
Q 32.328125 33.6875 34.8125 36.53125 
Q 39.546875 41.84375 41.421875 45.53125 
Q 43.3125 49.21875 43.3125 52.78125 
Q 43.3125 58.59375 39.234375 62.25 
Q 35.15625 65.921875 28.609375 65.921875 
Q 23.96875 65.921875 18.8125 64.3125 
Q 13.671875 62.703125 7.8125 59.421875 
L 7.8125 69.390625 
Q 13.765625 71.78125 18.9375 73 
Q 24.125 74.21875 28.421875 74.21875 
Q 39.75 74.21875 46.484375 68.546875 
Q 53.21875 62.890625 53.21875 53.421875 
Q 53.21875 48.921875 51.53125 44.890625 
Q 49.859375 40.875 45.40625 35.40625 
Q 44.1875 33.984375 37.640625 27.21875 
Q 31.109375 20.453125 19.1875 8.296875 
z
" id="DejaVuSans-50"/>
      </defs>
      <g transform="translate(104.190728 392.598437)scale(0.1 -0.1)">
       <use xlink:href="#DejaVuSans-8722"/>
       <use x="83.789062" xlink:href="#DejaVuSans-50"/>
      </g>
     </g>
    </g>
    <g id="xtick_2">
     <g id="line2d_3">
      <path clip-path="url(#p96ed0c7ab0)" d="M 210.576505 378 
L 210.576505 51.84 
" style="fill:none;stroke:#d3d3d3;stroke-dasharray:2.22,0.96;stroke-dashoffset:0;stroke-width:0.6;"/>
     </g>
     <g id="line2d_4">
      <g>
       <use style="stroke:#000000;stroke-width:0.8;" x="210.576505" xlink:href="#mc4a4e2e250" y="378"/>
      </g>
     </g>
     <g id="text_2">
      <!-- 0 -->
      <defs>
       <path d="M 31.78125 66.40625 
Q 24.171875 66.40625 20.328125 58.90625 
Q 16.5 51.421875 16.5 36.375 
Q 16.5 21.390625 20.328125 13.890625 
Q 24.171875 6.390625 31.78125 6.390625 
Q 39.453125 6.390625 43.28125 13.890625 
Q 47.125 21.390625 47.125 36.375 
Q 47.125 51.421875 43.28125 58.90625 
Q 39.453125 66.40625 31.78125 66.40625 
z
M 31.78125 74.21875 
Q 44.046875 74.21875 50.515625 64.515625 
Q 56.984375 54.828125 56.984375 36.375 
Q 56.984375 17.96875 50.515625 8.265625 
Q 44.046875 -1.421875 31.78125 -1.421875 
Q 19.53125 -1.421875 13.0625 8.265625 
Q 6.59375 17.96875 6.59375 36.375 
Q 6.59375 54.828125 13.0625 64.515625 
Q 19.53125 74.21875 31.78125 74.21875 
z
" id="DejaVuSans-48"/>
      </defs>
      <g transform="translate(207.395255 392.598437)scale(0.1 -0.1)">
       <use xlink:href="#DejaVuSans-48"/>
      </g>
     </g>
    </g>
    <g id="xtick_3">
     <g id="line2d_5">
      <path clip-path="url(#p96ed0c7ab0)" d="M 309.59119 378 
L 309.59119 51.84 
" style="fill:none;stroke:#d3d3d3;stroke-dasharray:2.22,0.96;stroke-dashoffset:0;stroke-width:0.6;"/>
     </g>
     <g id="line2d_6">
      <g>
       <use style="stroke:#000000;stroke-width:0.8;" x="309.59119" xlink:href="#mc4a4e2e250" y="378"/>
      </g>
     </g>
     <g id="text_3">
      <!-- 2 -->
      <g transform="translate(306.40994 392.598437)scale(0.1 -0.1)">
       <use xlink:href="#DejaVuSans-50"/>
      </g>
     </g>
    </g>
    <g id="xtick_4">
     <g id="line2d_7">
      <path clip-path="url(#p96ed0c7ab0)" d="M 408.605874 378 
L 408.605874 51.84 
" style="fill:none;stroke:#d3d3d3;stroke-dasharray:2.22,0.96;stroke-dashoffset:0;stroke-width:0.6;"/>
     </g>
     <g id="line2d_8">
      <g>
       <use style="stroke:#000000;stroke-width:0.8;" x="408.605874" xlink:href="#mc4a4e2e250" y="378"/>
      </g>
     </g>
     <g id="text_4">
      <!-- 4 -->
      <defs>
       <path d="M 37.796875 64.3125 
L 12.890625 25.390625 
L 37.796875 25.390625 
z
M 35.203125 72.90625 
L 47.609375 72.90625 
L 47.609375 25.390625 
L 58.015625 25.390625 
L 58.015625 17.1875 
L 47.609375 17.1875 
L 47.609375 0 
L 37.796875 0 
L 37.796875 17.1875 
L 4.890625 17.1875 
L 4.890625 26.703125 
z
" id="DejaVuSans-52"/>
      </defs>
      <g transform="translate(405.424624 392.598437)scale(0.1 -0.1)">
       <use xlink:href="#DejaVuSans-52"/>
      </g>
     </g>
    </g>
    <g id="xtick_5">
     <g id="line2d_9">
      <path clip-path="url(#p96ed0c7ab0)" d="M 507.620558 378 
L 507.620558 51.84 
" style="fill:none;stroke:#d3d3d3;stroke-dasharray:2.22,0.96;stroke-dashoffset:0;stroke-width:0.6;"/>
     </g>
     <g id="line2d_10">
      <g>
       <use style="stroke:#000000;stroke-width:0.8;" x="507.620558" xlink:href="#mc4a4e2e250" y="378"/>
      </g>
     </g>
     <g id="text_5">
      <!-- 6 -->
      <defs>
       <path d="M 33.015625 40.375 
Q 26.375 40.375 22.484375 35.828125 
Q 18.609375 31.296875 18.609375 23.390625 
Q 18.609375 15.53125 22.484375 10.953125 
Q 26.375 6.390625 33.015625 6.390625 
Q 39.65625 6.390625 43.53125 10.953125 
Q 47.40625 15.53125 47.40625 23.390625 
Q 47.40625 31.296875 43.53125 35.828125 
Q 39.65625 40.375 33.015625 40.375 
z
M 52.59375 71.296875 
L 52.59375 62.3125 
Q 48.875 64.0625 45.09375 64.984375 
Q 41.3125 65.921875 37.59375 65.921875 
Q 27.828125 65.921875 22.671875 59.328125 
Q 17.53125 52.734375 16.796875 39.40625 
Q 19.671875 43.65625 24.015625 45.921875 
Q 28.375 48.1875 33.59375 48.1875 
Q 44.578125 48.1875 50.953125 41.515625 
Q 57.328125 34.859375 57.328125 23.390625 
Q 57.328125 12.15625 50.6875 5.359375 
Q 44.046875 -1.421875 33.015625 -1.421875 
Q 20.359375 -1.421875 13.671875 8.265625 
Q 6.984375 17.96875 6.984375 36.375 
Q 6.984375 53.65625 15.1875 63.9375 
Q 23.390625 74.21875 37.203125 74.21875 
Q 40.921875 74.21875 44.703125 73.484375 
Q 48.484375 72.75 52.59375 71.296875 
z
" id="DejaVuSans-54"/>
      </defs>
      <g transform="translate(504.439308 392.598437)scale(0.1 -0.1)">
       <use xlink:href="#DejaVuSans-54"/>
      </g>
     </g>
    </g>
    <g id="xtick_6">
     <g id="line2d_11">
      <path clip-path="url(#p96ed0c7ab0)" d="M 606.635242 378 
L 606.635242 51.84 
" style="fill:none;stroke:#d3d3d3;stroke-dasharray:2.22,0.96;stroke-dashoffset:0;stroke-width:0.6;"/>
     </g>
     <g id="line2d_12">
      <g>
       <use style="stroke:#000000;stroke-width:0.8;" x="606.635242" xlink:href="#mc4a4e2e250" y="378"/>
      </g>
     </g>
     <g id="text_6">
      <!-- 8 -->
      <defs>
       <path d="M 31.78125 34.625 
Q 24.75 34.625 20.71875 30.859375 
Q 16.703125 27.09375 16.703125 20.515625 
Q 16.703125 13.921875 20.71875 10.15625 
Q 24.75 6.390625 31.78125 6.390625 
Q 38.8125 6.390625 42.859375 10.171875 
Q 46.921875 13.96875 46.921875 20.515625 
Q 46.921875 27.09375 42.890625 30.859375 
Q 38.875 34.625 31.78125 34.625 
z
M 21.921875 38.8125 
Q 15.578125 40.375 12.03125 44.71875 
Q 8.5 49.078125 8.5 55.328125 
Q 8.5 64.0625 14.71875 69.140625 
Q 20.953125 74.21875 31.78125 74.21875 
Q 42.671875 74.21875 48.875 69.140625 
Q 55.078125 64.0625 55.078125 55.328125 
Q 55.078125 49.078125 51.53125 44.71875 
Q 48 40.375 41.703125 38.8125 
Q 48.828125 37.15625 52.796875 32.3125 
Q 56.78125 27.484375 56.78125 20.515625 
Q 56.78125 9.90625 50.3125 4.234375 
Q 43.84375 -1.421875 31.78125 -1.421875 
Q 19.734375 -1.421875 13.25 4.234375 
Q 6.78125 9.90625 6.78125 20.515625 
Q 6.78125 27.484375 10.78125 32.3125 
Q 14.796875 37.15625 21.921875 38.8125 
z
M 18.3125 54.390625 
Q 18.3125 48.734375 21.84375 45.5625 
Q 25.390625 42.390625 31.78125 42.390625 
Q 38.140625 42.390625 41.71875 45.5625 
Q 45.3125 48.734375 45.3125 54.390625 
Q 45.3125 60.0625 41.71875 63.234375 
Q 38.140625 66.40625 31.78125 66.40625 
Q 25.390625 66.40625 21.84375 63.234375 
Q 18.3125 60.0625 18.3125 54.390625 
z
" id="DejaVuSans-56"/>
      </defs>
      <g transform="translate(603.453992 392.598437)scale(0.1 -0.1)">
       <use xlink:href="#DejaVuSans-56"/>
      </g>
     </g>
    </g>
    <g id="text_7">
     <!-- x -->
     <defs>
      <path d="M 54.890625 54.6875 
L 35.109375 28.078125 
L 55.90625 0 
L 45.3125 0 
L 29.390625 21.484375 
L 13.484375 0 
L 2.875 0 
L 24.125 28.609375 
L 4.6875 54.6875 
L 15.28125 54.6875 
L 29.78125 35.203125 
L 44.28125 54.6875 
z
" id="DejaVuSans-120"/>
     </defs>
     <g transform="translate(366.040625 406.276563)scale(0.1 -0.1)">
      <use xlink:href="#DejaVuSans-120"/>
     </g>
    </g>
   </g>
   <g id="matplotlib.axis_2">
    <g id="ytick_1">
     <g id="line2d_13">
      <path clip-path="url(#p96ed0c7ab0)" d="M 90 360.966659 
L 648 360.966659 
" style="fill:none;stroke:#d3d3d3;stroke-dasharray:2.22,0.96;stroke-dashoffset:0;stroke-width:0.6;"/>
     </g>
     <g id="line2d_14">
      <defs>
       <path d="M 0 0 
L -3.5 0 
" id="mec0d081101" style="stroke:#000000;stroke-width:0.8;"/>
      </defs>
      <g>
       <use style="stroke:#000000;stroke-width:0.8;" x="90" xlink:href="#mec0d081101" y="360.966659"/>
      </g>
     </g>
     <g id="text_8">
      <!-- 0 -->
      <g transform="translate(76.6375 364.765878)scale(0.1 -0.1)">
       <use xlink:href="#DejaVuSans-48"/>
      </g>
     </g>
    </g>
    <g id="ytick_2">
     <g id="line2d_15">
      <path clip-path="url(#p96ed0c7ab0)" d="M 90 311.459317 
L 648 311.459317 
" style="fill:none;stroke:#d3d3d3;stroke-dasharray:2.22,0.96;stroke-dashoffset:0;stroke-width:0.6;"/>
     </g>
     <g id="line2d_16">
      <g>
       <use style="stroke:#000000;stroke-width:0.8;" x="90" xlink:href="#mec0d081101" y="311.459317"/>
      </g>
     </g>
     <g id="text_9">
      <!-- 1 -->
      <defs>
       <path d="M 12.40625 8.296875 
L 28.515625 8.296875 
L 28.515625 63.921875 
L 10.984375 60.40625 
L 10.984375 69.390625 
L 28.421875 72.90625 
L 38.28125 72.90625 
L 38.28125 8.296875 
L 54.390625 8.296875 
L 54.390625 0 
L 12.40625 0 
z
" id="DejaVuSans-49"/>
      </defs>
      <g transform="translate(76.6375 315.258536)scale(0.1 -0.1)">
       <use xlink:href="#DejaVuSans-49"/>
      </g>
     </g>
    </g>
    <g id="ytick_3">
     <g id="line2d_17">
      <path clip-path="url(#p96ed0c7ab0)" d="M 90 261.951975 
L 648 261.951975 
" style="fill:none;stroke:#d3d3d3;stroke-dasharray:2.22,0.96;stroke-dashoffset:0;stroke-width:0.6;"/>
     </g>
     <g id="line2d_18">
      <g>
       <use style="stroke:#000000;stroke-width:0.8;" x="90" xlink:href="#mec0d081101" y="261.951975"/>
      </g>
     </g>
     <g id="text_10">
      <!-- 2 -->
      <g transform="translate(76.6375 265.751194)scale(0.1 -0.1)">
       <use xlink:href="#DejaVuSans-50"/>
      </g>
     </g>
    </g>
    <g id="ytick_4">
     <g id="line2d_19">
      <path clip-path="url(#p96ed0c7ab0)" d="M 90 212.444633 
L 648 212.444633 
" style="fill:none;stroke:#d3d3d3;stroke-dasharray:2.22,0.96;stroke-dashoffset:0;stroke-width:0.6;"/>
     </g>
     <g id="line2d_20">
      <g>
       <use style="stroke:#000000;stroke-width:0.8;" x="90" xlink:href="#mec0d081101" y="212.444633"/>
      </g>
     </g>
     <g id="text_11">
      <!-- 3 -->
      <defs>
       <path d="M 40.578125 39.3125 
Q 47.65625 37.796875 51.625 33 
Q 55.609375 28.21875 55.609375 21.1875 
Q 55.609375 10.40625 48.1875 4.484375 
Q 40.765625 -1.421875 27.09375 -1.421875 
Q 22.515625 -1.421875 17.65625 -0.515625 
Q 12.796875 0.390625 7.625 2.203125 
L 7.625 11.71875 
Q 11.71875 9.328125 16.59375 8.109375 
Q 21.484375 6.890625 26.8125 6.890625 
Q 36.078125 6.890625 40.9375 10.546875 
Q 45.796875 14.203125 45.796875 21.1875 
Q 45.796875 27.640625 41.28125 31.265625 
Q 36.765625 34.90625 28.71875 34.90625 
L 20.21875 34.90625 
L 20.21875 43.015625 
L 29.109375 43.015625 
Q 36.375 43.015625 40.234375 45.921875 
Q 44.09375 48.828125 44.09375 54.296875 
Q 44.09375 59.90625 40.109375 62.90625 
Q 36.140625 65.921875 28.71875 65.921875 
Q 24.65625 65.921875 20.015625 65.03125 
Q 15.375 64.15625 9.8125 62.3125 
L 9.8125 71.09375 
Q 15.4375 72.65625 20.34375 73.4375 
Q 25.25 74.21875 29.59375 74.21875 
Q 40.828125 74.21875 47.359375 69.109375 
Q 53.90625 64.015625 53.90625 55.328125 
Q 53.90625 49.265625 50.4375 45.09375 
Q 46.96875 40.921875 40.578125 39.3125 
z
" id="DejaVuSans-51"/>
      </defs>
      <g transform="translate(76.6375 216.243852)scale(0.1 -0.1)">
       <use xlink:href="#DejaVuSans-51"/>
      </g>
     </g>
    </g>
    <g id="ytick_5">
     <g id="line2d_21">
      <path clip-path="url(#p96ed0c7ab0)" d="M 90 162.937291 
L 648 162.937291 
" style="fill:none;stroke:#d3d3d3;stroke-dasharray:2.22,0.96;stroke-dashoffset:0;stroke-width:0.6;"/>
     </g>
     <g id="line2d_22">
      <g>
       <use style="stroke:#000000;stroke-width:0.8;" x="90" xlink:href="#mec0d081101" y="162.937291"/>
      </g>
     </g>
     <g id="text_12">
      <!-- 4 -->
      <g transform="translate(76.6375 166.73651)scale(0.1 -0.1)">
       <use xlink:href="#DejaVuSans-52"/>
      </g>
     </g>
    </g>
    <g id="ytick_6">
     <g id="line2d_23">
      <path clip-path="url(#p96ed0c7ab0)" d="M 90 113.429949 
L 648 113.429949 
" style="fill:none;stroke:#d3d3d3;stroke-dasharray:2.22,0.96;stroke-dashoffset:0;stroke-width:0.6;"/>
     </g>
     <g id="line2d_24">
      <g>
       <use style="stroke:#000000;stroke-width:0.8;" x="90" xlink:href="#mec0d081101" y="113.429949"/>
      </g>
     </g>
     <g id="text_13">
      <!-- 5 -->
      <defs>
       <path d="M 10.796875 72.90625 
L 49.515625 72.90625 
L 49.515625 64.59375 
L 19.828125 64.59375 
L 19.828125 46.734375 
Q 21.96875 47.46875 24.109375 47.828125 
Q 26.265625 48.1875 28.421875 48.1875 
Q 40.625 48.1875 47.75 41.5 
Q 54.890625 34.8125 54.890625 23.390625 
Q 54.890625 11.625 47.5625 5.09375 
Q 40.234375 -1.421875 26.90625 -1.421875 
Q 22.3125 -1.421875 17.546875 -0.640625 
Q 12.796875 0.140625 7.71875 1.703125 
L 7.71875 11.625 
Q 12.109375 9.234375 16.796875 8.0625 
Q 21.484375 6.890625 26.703125 6.890625 
Q 35.15625 6.890625 40.078125 11.328125 
Q 45.015625 15.765625 45.015625 23.390625 
Q 45.015625 31 40.078125 35.4375 
Q 35.15625 39.890625 26.703125 39.890625 
Q 22.75 39.890625 18.8125 39.015625 
Q 14.890625 38.140625 10.796875 36.28125 
z
" id="DejaVuSans-53"/>
      </defs>
      <g transform="translate(76.6375 117.229168)scale(0.1 -0.1)">
       <use xlink:href="#DejaVuSans-53"/>
      </g>
     </g>
    </g>
    <g id="ytick_7">
     <g id="line2d_25">
      <path clip-path="url(#p96ed0c7ab0)" d="M 90 63.922607 
L 648 63.922607 
" style="fill:none;stroke:#d3d3d3;stroke-dasharray:2.22,0.96;stroke-dashoffset:0;stroke-width:0.6;"/>
     </g>
     <g id="line2d_26">
      <g>
       <use style="stroke:#000000;stroke-width:0.8;" x="90" xlink:href="#mec0d081101" y="63.922607"/>
      </g>
     </g>
     <g id="text_14">
      <!-- 6 -->
      <g transform="translate(76.6375 67.721826)scale(0.1 -0.1)">
       <use xlink:href="#DejaVuSans-54"/>
      </g>
     </g>
    </g>
    <g id="text_15">
     <!-- y -->
     <defs>
      <path d="M 32.171875 -5.078125 
Q 28.375 -14.84375 24.75 -17.8125 
Q 21.140625 -20.796875 15.09375 -20.796875 
L 7.90625 -20.796875 
L 7.90625 -13.28125 
L 13.1875 -13.28125 
Q 16.890625 -13.28125 18.9375 -11.515625 
Q 21 -9.765625 23.484375 -3.21875 
L 25.09375 0.875 
L 2.984375 54.6875 
L 12.5 54.6875 
L 29.59375 11.921875 
L 46.6875 54.6875 
L 56.203125 54.6875 
z
" id="DejaVuSans-121"/>
     </defs>
     <g transform="translate(70.557812 217.879375)rotate(-90)scale(0.1 -0.1)">
      <use xlink:href="#DejaVuSans-121"/>
     </g>
    </g>
   </g>
   <g id="patch_3">
    <path d="M 90 378 
L 90 51.84 
" style="fill:none;stroke:#000000;stroke-linecap:square;stroke-linejoin:miter;stroke-width:0.8;"/>
   </g>
   <g id="patch_4">
    <path d="M 648 378 
L 648 51.84 
" style="fill:none;stroke:#000000;stroke-linecap:square;stroke-linejoin:miter;stroke-width:0.8;"/>
   </g>
   <g id="patch_5">
    <path d="M 90 378 
L 648 378 
" style="fill:none;stroke:#000000;stroke-linecap:square;stroke-linejoin:miter;stroke-width:0.8;"/>
   </g>
   <g id="patch_6">
    <path d="M 90 51.84 
L 648 51.84 
" style="fill:none;stroke:#000000;stroke-linecap:square;stroke-linejoin:miter;stroke-width:0.8;"/>
   </g>
  </g>
 </g>
 <defs>
  <clipPath id="p96ed0c7ab0">
   <rect height="326.16" width="558" x="90" y="51.84"/>
  </clipPath>
 </defs>
</svg>
